{"scene":0,"scenes":[{"nodes":[0]}],"asset":{"version":"2.0","generator":"https://github.com/mikedh/trimesh"},"accessors":[{"componentType":5125,"type":"SCALAR","bufferView":0,"count":12843,"max":[6448],"min":[0]},{"componentType":5126,"type":"VEC3","byteOffset":0,"bufferView":1,"count":6449,"max":[640.3256225585938,673.706787109375,762.0824584960938],"min":[-603.4487915039062,-1.601130485534668,-702.9338989257812]},{"componentType":5126,"count":6449,"type":"VEC3","byteOffset":0,"bufferView":2,"max":[1.0,1.0,1.0],"min":[-1.0,-1.0,-1.0]}],"meshes":[{"name":"sample.obj","extras":{"processed":true},"primitives":[{"attributes":{"POSITION":1,"NORMAL":2},"indices":0,"mode":4}]}],"nodes":[{"name":"world","children":[1]},{"name":"sample.obj","mesh":0}],"buffers":[{"uri":"gltf_buffer_0.bin","byteLength":51372},{"uri":"gltf_buffer_1.bin","byteLength":77388},{"uri":"gltf_buffer_2.bin","byteLength":77388}],"bufferViews":[{"buffer":0,"byteOffset":0,"byteLength":51372},{"buffer":1,"byteOffset":0,"byteLength":77388},{"buffer":2,"byteOffset":0,"byteLength":77388}]}